<?xml version="1.0" encoding="iso-8859-1"?>
<!-- Generator: Adobe Illustrator 19.0.0, SVG Export Plug-In . SVG Version: 6.00 Build 0)  -->
<svg version="1.1" id="Capa_1" xmlns="http://www.w3.org/2000/svg" xmlns:xlink="http://www.w3.org/1999/xlink" x="0px" y="0px"
	 viewBox="0 0 511.99 511.99" style="enable-background:new 0 0 511.99 511.99;" xml:space="preserve">
<g>
	<g>
		<path d="M504.547,138.881L373.106,7.44c-9.924-9.916-26.078-9.924-35.994,0L235.606,108.954l-5.922-5.922
			c-3.328-3.337-8.738-3.337-12.066,0l-95.549,95.549l137.5,137.5c3.337,3.337,3.337,8.73,0,12.066
			c-1.664,1.664-3.849,2.5-6.033,2.5s-4.369-0.836-6.033-2.5L112.306,212.952L72.147,333.436c-1.024,3.064-0.222,6.451,2.065,8.73
			l17.869,17.869l-20.796,20.796c-4.019,4.019-6.238,9.37-6.238,15.062c0,4.19,1.22,8.192,3.465,11.623L2.506,473.522
			c-1.604,1.604-2.5,3.772-2.5,6.033c0,2.261,0.896,4.437,2.5,6.033l23.902,23.902c1.664,1.664,3.849,2.5,6.033,2.5
			s4.369-0.836,6.033-2.5l65.998-65.998c3.524,2.295,7.569,3.448,11.623,3.448c5.453,0,10.906-2.082,15.062-6.229l20.796-20.796
			l17.869,17.869c1.621,1.63,3.806,2.5,6.033,2.5c0.905,0,1.809-0.145,2.697-0.435l120.484-40.159l-27.631-27.631
			c-3.337-3.337-3.337-8.73,0-12.066s8.73-3.337,12.066,0l29.935,29.935l95.549-95.549c3.337-3.337,3.337-8.73,0-12.066
			l-5.914-5.922l101.514-101.514C514.463,164.96,514.463,148.806,504.547,138.881z M119.073,428.652
			c-1.647,1.647-4.326,1.647-5.982,0l-29.756-29.756c-1.075-1.075-1.246-2.338-1.246-2.995s0.162-1.911,1.237-2.995l20.796-20.796
			l35.738,35.738L119.073,428.652z M187.844,384.014c-1.664,1.664-3.849,2.5-6.033,2.5s-4.369-0.836-6.033-2.5l-47.804-47.805
			c-3.337-3.337-3.337-8.73,0-12.066c3.328-3.337,8.738-3.337,12.066,0l47.805,47.805
			C191.181,375.284,191.181,380.677,187.844,384.014z M235.649,384.014c-1.664,1.664-3.849,2.5-6.033,2.5s-4.369-0.836-6.033-2.5
			l-95.609-95.609c-3.337-3.337-3.337-8.73,0-12.066c3.328-3.337,8.738-3.337,12.066,0l95.609,95.609
			C238.985,375.284,238.985,380.677,235.649,384.014z M456.691,115.167l9.464,9.464l2.372,2.372l-35.738,35.738l-11.836-11.836
			L456.691,115.167z M408.887,67.362l4.736,4.736l7.1,7.1l-35.738,35.738L373.149,103.1L408.887,67.362z M283.334,252.436
			c-6.349,6.349-17.425,6.349-23.783,0c-3.174-3.183-4.924-7.398-4.924-11.896c0-4.497,1.749-8.713,4.924-11.896l41.831-41.831
			l29.816-29.824l23.791,23.791l-29.824,29.825L283.334,252.436z M492.472,162.809L390.958,264.323l-47.694-47.694l29.825-29.816
			c1.604-1.604,2.5-3.772,2.5-6.033c0-2.261-0.896-4.437-2.5-6.033l-35.858-35.858c-3.2-3.2-8.866-3.2-12.066,0l-29.816,29.825
			l-47.685-47.685L349.178,19.515c3.268-3.26,8.593-3.26,11.862,0l11.887,11.879l-41.78,41.771c-1.604,1.604-2.5,3.772-2.5,6.033
			s0.896,4.437,2.5,6.033l23.902,23.902l23.902,23.902l23.902,23.902l23.902,23.902c1.604,1.604,3.772,2.5,6.033,2.5
			c2.261,0,4.437-0.896,6.033-2.5l41.771-41.771l11.879,11.879C495.741,154.224,495.741,159.541,492.472,162.809z"/>
	</g>
</g>
<g>
</g>
<g>
</g>
<g>
</g>
<g>
</g>
<g>
</g>
<g>
</g>
<g>
</g>
<g>
</g>
<g>
</g>
<g>
</g>
<g>
</g>
<g>
</g>
<g>
</g>
<g>
</g>
<g>
</g>
</svg>
